<svg xmlns="http://www.w3.org/2000/svg" viewBox="0 0 141.73 141.73"><defs><style>.cls-1{fill:#fff;}.cls-2{fill:#f89728;}</style></defs><title>Asset 1</title><g id="Layer_2" data-name="Layer 2"><g id="Laag_1" data-name="Laag 1"><rect width="141.73" height="141.73" rx="20"/><path class="cls-1" d="M16.84,76H28.47a15.78,15.78,0,1,1,0,31.56H16.84ZM25,100.65h1.85c4.89,0,9.08-2.68,9.08-8.84C36,86.17,32.24,83,27,83H25Z"/><path class="cls-1" d="M55,107.6H47.39V86.12H55Z"/><path class="cls-1" d="M82.72,105.5c0,9.13-4.52,12.81-12.43,12.81-4.94,0-11.55-2.55-12.22-8.2h8.54A2.61,2.61,0,0,0,68,111.74a5.07,5.07,0,0,0,2.18.5c4.1,0,4.89-2.68,4.89-6.15v-1A8.9,8.9,0,0,1,68.28,108c-6.28,0-10.59-4.77-10.59-11s4.44-11.64,11-11.64a7.35,7.35,0,0,1,6.32,3h.08V86.12h7.62ZM65.56,96.71a4.9,4.9,0,0,0,9.79,0,4.9,4.9,0,0,0-9.79,0Z"/><path class="cls-2" d="M94.36,107.6H86.74V86.12h7.62Z"/><path class="cls-2" d="M98.83,76h11.63a15.78,15.78,0,1,1,0,31.56H98.83Zm8.2,24.61h1.84c4.89,0,9.08-2.68,9.08-8.84,0-5.64-3.73-8.83-9-8.83H107Z"/><path class="cls-1" d="M55.51,78a4.27,4.27,0,1,1-4.27-4.27A4.29,4.29,0,0,1,55.51,78Z"/><path class="cls-2" d="M94.72,78a4.27,4.27,0,1,1-4.27-4.27A4.28,4.28,0,0,1,94.72,78Z"/></g></g></svg>