<?xml version="1.0" encoding="utf-8"?>
<!--Generator: Adobe Illustrator 23.0.2, SVG Export Plug-In . SVG Version: 6.00 Build 0)-->
<svg xmlns="http://www.w3.org/2000/svg" xmlns:xlink="http://www.w3.org/1999/xlink" x="0px" y="0px" class="vertical" style="enable-background:new 0 0 80 80" version="1.1" viewBox="0 0 80 80" xml:space="preserve" aria-hidden="true">
    <style type="text/css">
        .st0{fill:none;stroke:#000000;stroke-width:2;stroke-linejoin:round;stroke-miterlimit:10;} .st1{fill:none;stroke:#000000;stroke-linecap:square;stroke-linejoin:round;stroke-miterlimit:10;} .st2{fill:none;stroke:#000000;stroke-linecap:round;stroke-linejoin:round;stroke-miterlimit:10;} .st3{fill:none;stroke:#000000;stroke-width:1.0431;stroke-linecap:square;stroke-linejoin:round;stroke-miterlimit:10;} .st4{fill:none;stroke:#000000;stroke-width:2;stroke-miterlimit:10;} .st5{fill:none;stroke:#000000;stroke-width:2;stroke-linecap:round;stroke-linejoin:round;stroke-miterlimit:10;} .st6{fill:none;stroke:#000000;stroke-linejoin:round;stroke-miterlimit:10;} .st7{fill:#FFFFFF;stroke:#000000;stroke-linecap:square;stroke-linejoin:round;stroke-miterlimit:10;}
    </style>
    <g>
        <path d="M54,42V16c0-1.66-1.34-3-3-3H27c-1.66,0-3,1.34-3,3v42c0,1.66,1.34,3,3,3h3" class="st0"/>
        <line x1="35.5" x2="42.5" y1="17.5" y2="17.5" class="st1"/>
        <path d="M38.61,65.16l-9.66-14.49c-0.81-1.22-0.53-2.86,0.64-3.74l0,0c1.1-0.82,2.63-0.71,3.6,0.26l3.31,3.31V35
		c0-1.38,1.12-2.5,2.5-2.5h0c1.38,0,2.5,1.12,2.5,2.5v15.5V44c0-1.38,1.12-2.5,2.5-2.5h0c1.38,0,2.5,1.12,2.5,2.5v7.5V47
		c0-1.38,1.12-2.5,2.5-2.5h0c1.38,0,2.5,1.12,2.5,2.5v5.5V49c0-1.38,1.12-2.5,2.5-2.5h0c1.38,0,2.5,1.12,2.5,2.5v11.5
		c0,3.31-2.69,6-6,6h-9.39C40.1,66.5,39.17,66,38.61,65.16z" class="st2"/>
    </g>
</svg>
