<?xml version="1.0" encoding="utf-8"?>
<!--Generator: Adobe Illustrator 23.0.2, SVG Export Plug-In . SVG Version: 6.00 Build 0)-->
<svg xmlns="http://www.w3.org/2000/svg" xmlns:xlink="http://www.w3.org/1999/xlink" x="0px" y="0px" style="enable-background:new 0 0 80 80" version="1.1" viewBox="0 0 80 80" xml:space="preserve" aria-hidden="true">
    <style type="text/css">
        .st0{fill:none;stroke:#000000;stroke-width:2;stroke-linejoin:round;stroke-miterlimit:10;} .st1{fill:none;stroke:#000000;stroke-linecap:square;stroke-linejoin:round;stroke-miterlimit:10;} .st2{fill:none;stroke:#000000;stroke-linecap:round;stroke-linejoin:round;stroke-miterlimit:10;} .st3{fill:none;stroke:#000000;stroke-width:1.0431;stroke-linecap:square;stroke-linejoin:round;stroke-miterlimit:10;} .st4{fill:none;stroke:#000000;stroke-width:2;stroke-miterlimit:10;} .st5{fill:none;stroke:#000000;stroke-width:2;stroke-linecap:round;stroke-linejoin:round;stroke-miterlimit:10;} .st6{fill:none;stroke:#000000;stroke-linejoin:round;stroke-miterlimit:10;} .st7{fill:#FFFFFF;stroke:#000000;stroke-linecap:square;stroke-linejoin:round;stroke-miterlimit:10;}
    </style>
    <g>
        <path d="M60,56H20c-1.66,0-3-1.34-3-3V28c0-1.66,1.34-3,3-3h40c1.66,0,3,1.34,3,3v25C63,54.66,61.66,56,60,56z" class="st5"/>
        <g>
            <path d="M30.5,33c1.93,0,3.5,1.57,3.5,3.5S32.43,40,30.5,40S27,38.43,27,36.5S28.57,33,30.5,33 M30.5,32c-2.48,0-4.5,2.02-4.5,4.5
			s2.02,4.5,4.5,4.5s4.5-2.02,4.5-4.5S32.98,32,30.5,32L30.5,32z"/>
        </g>
        <path d="M23.5,49v-1c0-3.87,3.13-7,7-7s7,3.13,7,7v1" class="st6"/>
        <line x1="43.5" x2="55.5" y1="34.5" y2="34.5" class="st7"/>
        <line x1="43.5" x2="53.5" y1="38.5" y2="38.5" class="st7"/>
        <line x1="43.5" x2="55.5" y1="42.5" y2="42.5" class="st7"/>
        <line x1="43.5" x2="53.5" y1="46.5" y2="46.5" class="st7"/>
    </g>
</svg>
