<?xml version="1.0" encoding="utf-8"?>
<!-- Generator: Adobe Illustrator 24.0.0, SVG Export Plug-In . SVG Version: 6.00 Build 0)  -->
<svg version="1.1" id="Layer_1" xmlns="http://www.w3.org/2000/svg" xmlns:xlink="http://www.w3.org/1999/xlink" x="0px" y="0px"
	 viewBox="0 0 50 100" style="enable-background:new 0 0 50 100;" xml:space="preserve">
<style type="text/css">
	.st0{fill:none;}
	.st1{fill:#154273;}
	.st2{fill:#FFFFFF;}
</style>
<g id="Laag_1_1_">
	<g>
		<rect x="0" y="0.1" class="st0" width="314" height="125"/>
		<rect x="0" y="0.1" class="st1" width="50" height="100"/>
	</g>
	<path class="st2" d="M25.9,77.5H25v-2.4h0.9V77.5z M29.8,66.8H29v-2.4h0.9V66.8z M13.7,62.7c-0.1,0-0.5,0-0.5,0.1s0.2,0,0.5,0.1
		c0.7,0.1,1,0.5,1.5,0.5c0.4,0,0.9-0.3,0.7-0.9c0-0.1-0.1-0.1-0.1,0c-0.1,0.3-0.4,0.5-0.8,0.5C14.5,62.8,14.5,62.7,13.7,62.7z
		 M8.9,65.1c0.1,0.1,0.9,1.2-0.4,1.6c-0.1,0-0.1,0.1,0,0.1c0.9,0.4,1.4-0.3,1.4-0.3c0.5,1.1-0.3,1.7-0.3,1.7
		c0.1,0.2,0.6,0.5,1.2,0.7c0.3-0.1,0.6-0.4,0.8-0.8c0,0,0.2,0.5,0,0.9c1.9,0.2,2.6-1.3,4-1.1c0,0,0.1,0,0.1-0.1c0-0.9-0.6-2.7-2.4-3
		c-1.8-0.3-1.3-1.1-1.3-1.1c0.8,0,1.2,0.3,1.2,0.3c0.1-0.2-0.1-0.5-0.1-0.5c0.1-0.1,0.1-0.4,0.1-0.4c-0.9,0-1.1-0.2-1.1-0.2
		c-0.1-0.5,0.2-1.2,1.5-0.5c0.3-0.3,0.3-0.7,0.3-0.7c0.1,0,0.2-0.2,0.2-0.3c0-0.2-1-0.8-1.3-0.8c-0.1-0.3-0.5-0.8-1.7-0.6
		c-0.6,0.1-1-0.1-0.8-0.4c0-0.1-0.1-0.1-0.1,0c-0.1,0.1-0.3,0.5,0.2,0.8c0.6,0.3,0.6,0.8,0.6,0.9c0,0.1-0.1,0.1-0.2,0
		c-0.2-0.9-1.5-1.1-2.3-0.6c0,0.5,0.6,0.8,0.9,0.8c0.2,0,0.4-0.2,0.4-0.4c0-0.1,0.1-0.1,0.1,0c0.1,0.3-0.4,1-1.1,0.6
		c-0.7,0.7-0.4,1.7-0.4,2c0.1,0.6-0.2,1.2-0.7,0.9c0,0-0.1,0-0.1,0C7.9,65,8.3,65.4,8.9,65.1z M13,61.4c-0.4,0.4-0.9,0.3-1.1-0.3
		C12.7,61,13,61,13,61.4z M35.1,62.8c-0.4,0-0.7-0.2-0.8-0.5c0-0.1-0.1-0.1-0.1,0c-0.2,0.6,0.3,0.9,0.7,0.9c0.5,0,0.8-0.3,1.5-0.5
		c0.3,0,0.5,0,0.5-0.1c0-0.1-0.5-0.1-0.5-0.1C35.6,62.7,35.5,62.8,35.1,62.8z M42.2,64.6C42.2,64.5,42.2,64.6,42.2,64.6
		c-0.6,0.2-0.9-0.3-0.8-1c0.1-0.3,0.4-1.2-0.4-2c-0.7,0.4-1.2-0.3-1.1-0.6c0-0.1,0.1-0.1,0.1,0c0,0.2,0.2,0.4,0.4,0.4
		c0.3,0,0.8-0.3,0.9-0.8c-0.8-0.5-2-0.3-2.3,0.6c0,0.1-0.2,0.1-0.2,0c0-0.1,0-0.6,0.6-0.9c0.5-0.2,0.3-0.6,0.2-0.8c0,0-0.2,0-0.1,0
		c0.2,0.3-0.2,0.5-0.8,0.4c-1.2-0.2-1.6,0.3-1.7,0.6c-0.3,0.1-1.3,0.6-1.3,0.8c0,0.1,0.1,0.2,0.2,0.3c0,0,0,0.4,0.3,0.7
		c1.3-0.8,1.6,0,1.5,0.5c0,0-0.2,0.2-1.1,0.2c0,0,0,0.3,0.1,0.4c0,0-0.2,0.2-0.1,0.5c0,0,0.4-0.3,1.2-0.3c0,0,0.5,0.7-1.3,1.1
		s-2.4,2.1-2.4,3c0,0.1,0,0.1,0.1,0.1c1.5-0.3,2.1,1.2,4,1.1c-0.2-0.4,0-0.9,0-0.9c0.2,0.4,0.5,0.7,0.8,0.8c0.7-0.2,1.1-0.5,1.2-0.7
		c0,0-0.7-0.6-0.2-1.7c0,0,0.5,0.7,1.4,0.3c0.1,0,0.1-0.1,0-0.1c-1.3-0.4-0.4-1.5-0.4-1.6C41.7,65.4,42.2,65,42.2,64.6z M38.1,61
		c-0.1,0.6-0.7,0.7-1,0.3C37.1,61,37.4,61,38.1,61z M24.7,50.3c0,0.2,0.1,0.3,0.1,0.4c0.1,0.2,0.1,0.2,0,0.3s-0.1,0.1-0.3,0
		c-0.1-0.1-0.2-0.1-0.4-0.1c-0.3,0-0.4,0.2-0.4,0.3s0.1,0.3,0.4,0.3c0.2,0,0.3-0.1,0.4-0.1c0.2-0.1,0.2-0.1,0.3,0s0,0.6-0.1,1
		c-0.5,0.1-0.7,0.5-0.7,0.7c0,0.5,0.6,0.9,0.9,1c0.3-0.2,0.9-0.5,0.9-1c0-0.2-0.2-0.6-0.7-0.7c-0.1-0.4-0.1-1-0.1-1s0.1-0.1,0.3,0
		c0.1,0.1,0.2,0.1,0.4,0.1c0.3,0,0.4-0.2,0.4-0.3s-0.1-0.3-0.4-0.3c-0.2,0-0.3,0.1-0.4,0.1c-0.2,0.1-0.2,0.1-0.3,0s-0.1-0.1,0-0.3
		c0.1-0.1,0.1-0.2,0.1-0.4c0-0.3-0.2-0.4-0.3-0.4C24.9,49.9,24.7,50.1,24.7,50.3z M25,54.4c-0.4,0-0.7,0.3-0.7,0.7s0.3,0.7,0.7,0.7
		s0.7-0.3,0.7-0.7S25.4,54.4,25,54.4z M25,60.8c2.7,0,4.2,0.5,4.2,0.5c0-1.3,0-2.1,0.8-2c-0.4-1.1,1.4-1.6,1.4-3
		c0-1-0.7-1.1-0.9-1.1c-0.6,0-0.5,0.4-1,0.4c-0.1,0-0.1,0-0.1,0c0,0.2,0.1,0.5,0.4,0.5c0.3,0,0.3-0.3,0.6-0.3c0.1,0,0.2,0.1,0.2,0.4
		c0,0.6-0.4,1.3-0.9,1.9c-0.1-0.2-0.3-0.2-0.5-0.2c-0.3,0-0.5,0.3-0.5,0.7c0,0.1,0,0.2,0.1,0.3c-0.2,0.1-0.3,0.1-0.4,0.1
		c-0.2,0-0.5-0.1-0.5-0.6c0-1.1,1.4-2,1.4-3.4c0-0.7-0.4-1.3-1.3-1.3c-1,0-0.8,0.9-1.6,0.9c0,0-0.1,0-0.1,0c0,0.1,0.1,0.5,0.6,0.5
		c0.5,0,0.6-0.8,1-0.8c0.1,0,0.4,0.1,0.4,0.6c0,0.4-0.2,1.1-0.5,1.8c-0.1-0.1-0.3-0.2-0.4-0.2c-0.4,0-0.6,0.3-0.6,0.8
		c0,0.3,0.1,0.5,0.3,0.7c-0.2,0.3-0.4,0.5-0.7,0.5c-0.6,0-0.8-0.3-0.8-0.7c0-0.4,0.7-0.5,0.7-1.1c0-0.4-0.3-0.6-0.5-0.6
		c-0.3,0-0.4,0.2-0.5,0.2S24.9,56,24.6,56c-0.3,0-0.5,0.2-0.5,0.6c0,0.6,0.7,0.8,0.7,1.1c0,0.4-0.3,0.7-0.8,0.7
		c-0.3,0-0.5-0.2-0.7-0.5c0.2-0.2,0.3-0.4,0.3-0.7c0-0.4-0.3-0.8-0.6-0.8c-0.2,0-0.3,0.1-0.4,0.2C22.2,56.1,22,55.4,22,55
		c0-0.5,0.2-0.6,0.4-0.6c0.4,0,0.5,0.8,1,0.8c0.4,0,0.6-0.5,0.6-0.5c0,0,0,0-0.1,0c-0.8,0-0.7-0.9-1.6-0.9c-0.9,0-1.3,0.6-1.3,1.3
		c0,1.4,1.4,2.3,1.4,3.4c0,0.5-0.3,0.6-0.5,0.6c-0.1,0-0.2,0-0.4-0.1c0-0.1,0.1-0.2,0.1-0.3c0-0.4-0.2-0.7-0.5-0.7
		c-0.2,0-0.3,0.1-0.4,0.2c-0.5-0.5-0.9-1.2-0.9-1.9c0-0.3,0.1-0.4,0.2-0.4c0.2,0,0.2,0.3,0.6,0.3c0.2,0,0.4-0.3,0.4-0.5
		c0,0-0.1,0-0.1,0c-0.5,0-0.4-0.4-1-0.4c-0.2,0-0.9,0.1-0.9,1.1c0,1.5,1.8,1.9,1.4,3c0.8-0.1,0.8,0.6,0.8,2
		C20.9,61.3,22.4,60.8,25,60.8z M20.2,62.8c-0.7,0.2-1.2,0.3-1.5,0.4c0-0.3,0.1-0.6,0.4-0.7c0,0,0-0.1,0-0.1c-0.6-0.4-1,0.4-1,0.4
		c-0.2,0-0.6,0-0.6,0.4c0,0.9-2.1,1.4-2.6,1.5c0.9,0.3,1.2,1.4,1.2,1.4c0.6-0.6,1.4-1.2,1.5-1.2s0.2,0.2,0.2,0.3c0,0,0,0.1,0.1,0
		c0.3-0.5,0.2-0.6,0.1-0.8c0-0.1,0-0.5,0.5-0.5v6.2l-0.2,0.1c-0.1,0-1-0.8-2-1.5c-1-0.7-1.6-0.3-2.8,0.3c-1.6,0.8-3.1,0.1-3.1,0.1
		C9.1,70.2,8.6,73,8.6,73c-0.3,0.1-0.7,0.2-1.1,0.2c-1,0-1.2-0.6-1.2-1c0-1.6,2-2.2,2-3.8c0-0.4-0.2-1.9-2.1-1.9c-0.2,0-1.7,0-1.7,0
		c-0.7,0-0.9-0.5-1-0.7c0-0.1-0.1,0-0.1,0c0,0.1-0.1,0.3-0.1,0.7c0,0.6,0.4,1,1.1,1c0.3,0,0.6-0.1,0.7-0.2c0.1,0,0.1,0,0.1,0.1
		c-0.3,0.3-0.3,1-0.2,1.2c0,0,0.1,0,0.1,0c0.2-0.7,0.8-1.3,1.6-1.3c1,0,1,0.9,1,1.1c0,1.3-2.2,2.2-2.2,3.9c0,1.8,1.9,2.1,2.9,1.9
		c-0.1,1.8-2.1,2.4-2.1,1.1c0-0.1-0.1-0.1-0.1,0C6,76,6.1,76.5,6.9,76.7c0.1,0,0,0,0,0.1c-0.8,0.5-0.4,2.4-0.3,3
		c0.1,0.8-0.8,0.7-0.8,0.7c0,0-0.1,0,0,0.1C6.3,81.2,7,80.6,7,80.6c0.5,0.2,0.2,0.6-0.2,0.9c-0.1,0-0.1,0.1,0,0.1
		c0.1,0,0.9,0.1,1.1-0.6c0.4,0.4,0.9,0.3,1,0.2c0.2-0.1,0.9-0.4,1,0.5c0,0.1,0,0,0.1,0c0.6-0.8,0-1.2-0.4-1.3c0,0,0.5-0.4,0.9,0.1
		c0,0,0.1,0.1,0.1,0c0.1-0.9-0.7-1-1.2-0.6c0-0.1-0.2-0.6,0.6-0.6c0,0,0.1,0,0-0.1c-0.6-0.6-1.1-0.1-1.2,0.1c-0.3,0.3-0.9,0.2-1,0.2
		c0.2-3.3,3.1-2.1,3.5-3.7c0-0.1,0.1-0.1,0.1,0c0.1,0.4,1.1,0.4,1.3-0.3c0-0.1,0-0.1,0-0.1c-0.8,0.8-2.7-1.8-0.1-3.9
		c2.2-1.8,4.2-0.8,4.9-0.2c0,0.3-0.1,0.3-0.2,0.4c0,0,0,0,0,0.1c0.2,0.1,0.5,0.1,0.6-0.1c0.5,0.3,0.1,0.8-0.1,0.9c0,0,0,0.1,0,0.1
		c0.4,0.1,0.8-0.4,0.8-0.6l0.1,0v1.9c0,2.7,3.1,3,6.4,5.3c3.4-2.3,6.4-2.6,6.4-5.3v-1.9l0.1,0c0,0.2,0.4,0.7,0.8,0.6
		c0,0,0.1,0,0-0.1c-0.2-0.1-0.6-0.5-0.1-0.9c0.1,0.2,0.4,0.2,0.6,0.1c0.1,0,0-0.1,0-0.1c-0.1,0-0.3-0.1-0.2-0.4
		c0.8-0.6,2.7-1.6,4.9,0.2c2.6,2.1,0.7,4.7-0.2,3.9c0,0,0,0,0,0.1c0.2,0.8,1.2,0.7,1.3,0.3c0,0,0-0.1,0.1,0c0.4,1.6,3.3,0.4,3.5,3.7
		c-0.1,0-0.7,0.1-1-0.2c-0.1-0.1-0.6-0.7-1.2-0.1c0,0,0,0.1,0,0.1c0.8,0,0.6,0.5,0.6,0.6c-0.5-0.4-1.3-0.3-1.2,0.6
		c0,0.1,0,0.1,0.1,0c0.4-0.6,0.9-0.2,0.9-0.1c-0.3,0.1-1,0.5-0.4,1.3c0,0,0.1,0.1,0.1,0c0.1-0.9,0.9-0.6,1-0.5
		c0.1,0.1,0.7,0.2,1-0.2c0.2,0.7,1,0.6,1.1,0.6c0.1,0,0.1,0,0-0.1c-0.4-0.2-0.7-0.7-0.2-0.9c0,0,0.7,0.7,1.3-0.1c0-0.1,0-0.1,0-0.1
		c-0.1,0-0.9,0.1-0.8-0.7c0-0.6,0.5-2.5-0.3-3c0,0-0.1-0.1,0-0.1c0.8-0.2,0.9-0.7,0.6-1.3c0-0.1-0.1-0.1-0.1,0
		c-0.1,1.3-2.1,0.7-2.1-1.1c1.1,0.3,2.9-0.1,2.9-1.9c0-1.7-2.2-2.7-2.2-3.9c0-0.2,0-1.1,1-1.1c0.8,0,1.5,0.6,1.6,1.3c0,0,0,0,0.1,0
		c0.1-0.2,0.1-0.8-0.2-1.2c0,0,0-0.1,0.1-0.1c0.1,0.1,0.4,0.2,0.7,0.2c0.7,0,1.1-0.4,1.1-1c0-0.4-0.1-0.6-0.1-0.7c0-0.1,0-0.1-0.1,0
		c-0.1,0.2-0.3,0.7-1,0.7c0,0-1.5,0-1.7,0c-1.9,0-2.1,1.5-2.1,1.9c0,1.6,2,2.2,2,3.8c0,0.4-0.2,1-1.2,1c-0.4,0-0.9-0.1-1.1-0.2
		c0,0-0.5-2.8-1.8-3.7c0,0-1.6,0.8-3.1-0.1c-1.2-0.6-1.7-1.1-2.8-0.3c-1,0.7-1.9,1.5-2,1.5l-0.2-0.1v-6.2c0.5,0,0.5,0.4,0.5,0.5
		c0,0.1-0.2,0.3,0.1,0.8c0,0,0.1,0,0.1,0c0-0.1,0.1-0.3,0.2-0.3s0.9,0.6,1.5,1.2c0,0,0.4-1.1,1.2-1.4c-0.5-0.1-2.6-0.6-2.6-1.5
		c0-0.3-0.3-0.4-0.6-0.4c0,0-0.4-0.8-1-0.4c0,0,0,0.1,0,0.1c0.3,0.1,0.4,0.4,0.4,0.7c-0.6-0.2-3.2-0.9-6.4-0.9c-1.5,0-2.9,0.2-4,0.4
		v2.1h-0.9L20.2,62.8L20.2,62.8 M14.4,84.8c-0.2-0.1-0.4-0.2-0.4-0.6v-1.3c-0.4-0.1-1.4-0.5-3.5-0.5c-1.7,0-2.3,0.4-2.3,0.5
		l-0.5,2.5c0,0,0.7-0.6,3.2-0.5c3,0.2,6.1,2,6.1,0.1v-1.1C14.7,83.9,14.4,84.7,14.4,84.8z M33,83.9V85c0,1.9,3.1,0.1,6.2-0.1
		c2.5-0.2,3.2,0.5,3.2,0.5l-0.5-2.5c0-0.1-0.6-0.5-2.3-0.5c-2.1,0-3.1,0.4-3.5,0.5v1.3c0,0.3-0.2,0.4-0.4,0.6
		C35.7,84.7,35.4,83.9,33,83.9z M25,82.7c4.9,0,9.8,0.2,10.4,1c0,0.1,0.1,0,0.1-0.1v-2.6c0-0.8-5.1-1.2-10.5-1.2s-10.5,0.4-10.5,1.2
		v2.6c0,0,0,0.1,0.1,0.1C15.2,83,20.2,82.7,25,82.7z M20.7,70.6l-0.5-0.1l0,0.1l-0.6-0.2c0,0,0.4,0,0.5,0c0,0,0,0,0-0.1
		c-0.2-0.2-0.4-0.4-0.4-0.4s0.2,0.1,0.6,0.2c0,0,0,0,0,0c-0.2-0.2-0.4-0.6-0.4-0.6s0.5,0.3,0.5,0.4c0,0,0,0,0,0
		c-0.1-0.3-0.3-0.7-0.3-0.7l0.5,0.5c0,0,0,0,0,0c0-0.2-0.1-0.7-0.1-0.7l0.4,0.5c0,0,0,0,0,0c0-0.1,0-0.6,0-0.6s0.2,0.4,0.2,0.5
		c0,0,0,0,0.1,0c0-0.1,0.2-0.5,0.2-0.5l0,0.6l-0.1,0l-0.1,0.7c0.7-0.2,1.6-1.4,2.4-1.4c0.8,0,1.1,1,2.7,0.5c0.4,0.6,0.5,1.1,0.7,1.8
		c0.6,0.6,1.4,0.4,1.4-0.2c0-0.8-0.9-0.9-0.9-1.8c0-0.4,0.3-0.9,1-0.9c0.4,0,0.9,0.2,1.2,0.2c0.4,0,0.5-0.3,0.5-0.4
		c0-0.1,0.1-0.1,0.1,0c0,0.1,0,0.2,0,0.4c0,0.5-0.8,0.6-0.9,0.5c0,0-0.1,0,0,0c0.1,0.1,0.1,0.4,0,0.6c0,0,0,0,0,0
		c-0.1-0.4-0.5-0.8-0.9-0.8c-0.1,0-0.4,0.1-0.4,0.4c0,0.5,1,0.9,1,1.9c0,1-1,1.3-2,1c0,1,1.5,1.5,1.5,0.8c0-0.1,0,0,0,0
		c0.2,0.3,0.1,0.5-0.2,0.6c0.2,0.1,0.3,0.6,0.4,0.9c0.1,0.5,0.6,0.2,0.6,0.2c0,0,0,0,0,0c-0.2,0.5-0.7,0.3-0.7,0.3
		c-0.2,0.2,0,0.3,0.3,0.4c0,0,0,0,0,0.1c-0.2,0.1-0.5,0.2-0.7-0.1c-0.1,0.3-0.4,0.3-0.5,0.3c-0.2,0-0.3,0.2-0.3,0.4c0,0,0,0,0,0
		c-0.4-0.3-0.2-0.6,0-0.7c0,0-0.3-0.2-0.5,0.2c0,0,0,0,0,0c-0.2-0.5,0.2-0.7,0.5-0.5c0-0.1-0.2-0.3-0.6-0.2c0,0,0,0,0,0
		c0.1-0.2,0.3-0.4,0.6-0.2c0.2,0.1,0.5-0.1,0.5-0.1c-0.6-1.3-1.9-0.2-2.2-1.2c0,0,0,0,0,0c-0.1,0.2-0.6,0.2-0.7-0.2c0,0,0,0,0,0
		c0.1,0.1,0.2,0.2,0.5-0.2c0.1-0.2,0.2-0.5,0.2-0.7c0-0.8-0.8-2.1-2-2.1c-0.8,0-1.6,0.3-2.2,0.8l0.6,0.1c0,0.6-0.6,0.9-1.1,0.8
		l0.1-0.7c-0.1,0-0.3,0.1-0.4,0.3c0,0,0,0,0,0c-0.1-0.4,0.2-0.6,0.3-0.6c0,0,0,0,0,0c-0.3,0-0.4,0.2-0.5,0.3c0,0,0,0,0,0
		C20.6,70.9,20.6,70.7,20.7,70.6z M22.4,75.1c-0.2,0.3-0.4,0-0.7,0c-0.3,0-0.3,0.2-0.3,0.3c0,0,0,0,0,0c-0.3-0.4,0-0.7,0.2-0.7
		c0,0-0.3-0.2-0.5,0.1c0,0,0,0,0,0c0-0.5,0.4-0.6,0.7-0.3c0-0.2-0.1-0.3-0.3-0.3c0,0,0,0,0,0c0.1-0.1,0.2-0.1,0.3-0.1
		c0.3,0,0.3,0.4,0.5,0.4c0.3,0,0.7-0.4,0.7-0.4c0,0-0.3-0.8-0.2-1.2c0,0,0,0,0,0c-0.1,0.1-0.5,0.1-0.5-0.3c0,0,0,0,0,0
		c0.1,0.2,0.4,0,0.5-0.2c0.1-0.2,0.9-1.2,1.8-1.2c0.2,0,0.5,0.1,0.7,0.3c-0.3,0.4,0,0.8,0.2,0.7c0,0,0,0,0,0
		c-1.3,0.5-1.8,0.7-1.8,1.7c0,0.6,0.2,0.9,0.5,0.8c0,0,0,0,0,0c-0.1,0.1-0.2,0.2-0.4,0.2c-0.3,0-0.3-0.1-0.5-0.1
		c-0.1,0-0.6,0.3-0.6,0.5c0,0.1,0.1,0.2,0.2,0.3c0,0,0,0,0,0C22.9,75.4,22.5,75.4,22.4,75.1z M25.7,64.8c-0.4,0-0.6,0.1-0.6,0.2
		C25.3,65.2,25.5,65.2,25.7,64.8z M24.3,65.8c0.3-0.1,0.6,0,0.6,0s0,0.1,0,0.1c-0.6,0.1-0.6,0.3-1,0.3c-0.2,0-0.5-0.2-0.4-0.6
		c0-0.1,0-0.1,0.1,0C23.6,65.7,23.8,65.9,24.3,65.8z M16.7,78.6c0.4,0.5,0.8,0,1.3,0c0.2,0,0.5,0.1,0.6,0.6c0,0,0,0,0,0
		c0.5-0.8-0.1-1.2-0.4-1.2c0.1-0.1,0.6-0.4,1,0.1c0,0,0.1,0,0.1,0c0-0.9-0.7-1-1.2-0.6c-0.1-0.4,0.2-0.6,0.5-0.6c0,0,0.1,0,0-0.1
		c-0.6-0.7-1.1,0.2-1.2,0.3c-0.2,0.3-1.2-0.3-1.5-0.7c0,0,0.8-0.8,0.8-1.6c0-0.1,0-0.1,0-0.1c0,0,0,0,0,0c0.1,0.1,0.2,0.1,0.3,0.1
		c0.2,0,0.5-0.1,0.5-0.7c0-0.1,0-0.1,0,0c-0.1,0.1-0.2,0.2-0.3,0.2c-0.6,0-2-2.2-3.6-2.2c-0.4,0-1.2,0.3-1.6,0.7
		c0.2,0.1,0.2,0.3,0.2,0.5c0,0.3-0.2,0.4-0.5,0.5c0,0,0,0,0,0.1c0.8,0.3,2.3,0.9,2.6,1.2c0.4,0.3,0.3,1,0.1,1.9
		c-0.2,0.8-0.7,0.7-0.9,0.7c0,0,0,0,0,0c0.2,0.3,0.5,0.3,0.7,0.3c0.4,0,0.6-0.3,0.8-0.3c0.4,0,1.1,0.5,1.1,0.9
		c0,0.2-0.2,0.4-0.4,0.6c0,0,0,0,0,0C15.9,79.2,16.6,79.3,16.7,78.6z M34.4,79.2C34.4,79.2,34.4,79.2,34.4,79.2
		C34.2,79,34,78.8,34,78.6c0-0.4,0.8-0.9,1.1-0.9c0.2,0,0.4,0.3,0.8,0.3c0.2,0,0.5-0.1,0.7-0.3c0,0,0,0,0,0c-0.2,0-0.7,0.1-0.9-0.7
		c-0.2-0.9-0.3-1.5,0.1-1.9c0.3-0.3,1.8-0.8,2.6-1.2c0,0,0-0.1,0-0.1c-0.2-0.1-0.4-0.2-0.5-0.5c0-0.2,0-0.4,0.2-0.5
		c-0.4-0.4-1.2-0.7-1.6-0.7c-1.6,0-3,2.2-3.6,2.2c-0.1,0-0.2,0-0.3-0.2c0,0,0,0,0,0c0,0.7,0.3,0.7,0.5,0.7c0.1,0,0.2,0,0.3-0.1
		c0,0,0,0,0,0c0,0,0,0.1,0,0.1c0,0.8,0.8,1.6,0.8,1.6c-0.4,0.4-1.3,1-1.5,0.7c-0.1-0.1-0.6-1-1.2-0.3c0,0,0,0.1,0,0.1
		c0.4,0,0.6,0.2,0.5,0.6c-0.5-0.4-1.2-0.3-1.2,0.6c0,0,0,0.1,0.1,0c0.3-0.5,0.9-0.2,1-0.1c-0.4,0.1-1,0.5-0.4,1.2c0,0,0,0,0,0
		c0.1-0.5,0.4-0.6,0.6-0.6c0.5,0,0.9,0.5,1.3,0C33.5,79.3,34.2,79.2,34.4,79.2z M21.5,66.7c0,0.1-0.2,0-0.3,0c0,0,0,0,0,0
		c0,0.1,0.2,0.4,0.4,0.4c0.1,0,0.3-0.1,0.3-0.1c0,0,0.9,0.3,1.4,0.4c-0.2,0.2-0.3,0.5-0.3,0.8c-0.4-0.2-1.9-1-1.9-1l-0.5,0.6
		c-0.1,0.1-0.5-0.2-0.4-0.3l0.4-0.5c-0.1-0.1-0.4-0.1-0.5,0c0,0,0,0,0,0c0-0.1,0.2-0.4,0.7-0.3c0-0.3-0.4-0.2-0.5-0.2c0,0,0,0,0,0
		c0.1-0.1,0.4-0.4,0.8-0.2l0.2-0.2l-0.3-0.3l0.2-0.3l0.2,0.3l1.7-2.4c0-0.1,0.4-0.2,0.5-0.2c0,0.1,0,0.5,0,0.5l-1.7,2.4l0.4,0.1
		l-0.2,0.3l-0.4-0.2L21.5,66.7z M27.5,66.3c0,0.2,0.1,0.5,0.4,0.4c0,0,0,0,0,0c0,0.2-0.5,0.5-0.7,0.2c-0.2,0.4-0.1,0.7,0.2,0.9
		c0,0,0,0,0,0.1c-0.2,0.2-0.6,0.1-0.7-0.2c-0.3,0.2-0.3,0.7-0.1,0.9c0,0-0.9,0.5-1.6,0.2c-0.5-0.2-0.9-0.6-1.6-0.5
		c0.1-0.9,0.6-1.2,1.4-1.3c0.7-0.1,0.8-0.4,0.7-0.7c-0.2-0.1-0.7,0.2-0.7,0.2c-0.1-0.1,0-0.3,0-0.3c0-0.1-0.1-0.2-0.1-0.2
		c0.5,0,0.6-0.1,0.6-0.1c0.1-0.5-0.4-0.6-0.8-0.3c-0.2-0.2-0.1-0.4-0.1-0.4c0,0-0.1-0.1-0.1-0.2c0-0.1,0.6-0.4,0.7-0.5
		c0-0.2,0.2-0.4,0.9-0.3c0.1-0.2,0-0.8-0.1-0.9c0,0,0-0.1,0.1,0c0.2,0.1,0.4,0.6,0.6,0.6c0,0,0.7-0.4,0.7-0.3c0,0,0.1,0.8,0.1,0.8
		c0.1,0.1,0.6,0,0.9,0.1c0.1,0,0.1,0.1,0,0.1c-0.2,0-0.7,0.3-0.8,0.4C27.7,65.5,27.5,66.1,27.5,66.3z"/>
</g>
</svg>
